<?xml version="1.0" encoding="UTF-8"?>
<svg id="Layer_2" data-name="Layer 2" xmlns="http://www.w3.org/2000/svg" viewBox="0 0 936.31 199.43">
  <defs>
    <style>
      .cls-1 {
        fill: #c1af93;
      }

      .cls-2 {
        fill: #f0ede4;
      }

      .cls-3 {
        fill: #1d232a;
        opacity: 0;
      }
    </style>
  </defs>
  <g id="Layer_1-2" data-name="Layer 1">
    <rect class="cls-3" width="936.31" height="199.43"/>
    <g>
      <path class="cls-2" d="M113.72,72.52v9.56c0,9.2-7.46,16.66-16.66,16.66h0v5.55c0,11.64-9.43,21.07-21.07,21.07h0v-34.18c0-10.31,8.36-18.66,18.66-18.66h19.07Z"/>
      <path class="cls-2" d="M126.46,96.45h-5.14c-9.97,0-18.05,8.08-18.05,18.05v11.68h5.14c9.97,0,18.05-8.08,18.05-18.05v-11.68Z"/>
      <path class="cls-2" d="M132.93,65.55v47.14c0,12.21-9.94,22.15-22.15,22.15h-42.24v-43.06c0-14.46,11.77-26.23,26.23-26.23h38.16M138.71,59.77h-43.94c-17.68,0-32.01,14.33-32.01,32.01v48.84h48.02c15.43,0,27.93-12.5,27.93-27.93v-52.92h0Z"/>
    </g>
    <g>
      <path class="cls-1" d="M649.22,114.36c0-.59-.05-1.27-.14-2.04,2.86,1.36,5.48,2.04,7.84,2.04,1.35,0,2.57-.22,3.66-.66,1.09-.44,1.94-1.09,2.53-1.96.6-.87.9-1.86.9-2.98,0-.56-.09-1.09-.28-1.59-.19-.5-.5-1.01-.93-1.54-.43-.53-1.05-1.21-1.86-2.03-.81-.82-2.26-2.11-4.35-3.85l-1.8-1.5c-.62-.55-1.22-1.11-1.8-1.7-.58-.59-1.05-1.14-1.43-1.65s-.66-.96-.85-1.36-.34-.84-.44-1.33c-.11-.48-.16-.98-.16-1.5,0-1.23.33-2.37,1-3.43.67-1.06,1.66-1.9,2.97-2.52s2.99-.93,5.02-.93c1.41,0,3.2.2,5.38.61.01.58.08,1.21.2,1.91-1.39-.44-2.55-.73-3.48-.89-.93-.15-1.8-.23-2.64-.23-1.5,0-2.74.25-3.71.74-.97.49-1.72,1.15-2.25,1.98-.53.83-.8,1.69-.8,2.6,0,.48.08.96.23,1.42.15.46.4.93.74,1.41s.8,1,1.38,1.57c.57.57,1.25,1.22,2.04,1.94.79.73,1.83,1.66,3.14,2.79s2.23,1.94,2.76,2.42,1.05.99,1.53,1.53c.49.55.88,1.09,1.18,1.62.3.54.53,1.09.67,1.67.14.58.22,1.18.22,1.82,0,1.42-.36,2.67-1.08,3.75-.72,1.08-1.78,1.89-3.18,2.44-1.4.55-2.97.83-4.71.83-1.12,0-2.21-.09-3.27-.26-1.06-.17-2.48-.56-4.27-1.15Z"/>
      <path class="cls-1" d="M686.79,115.29l.34-5.66.89-23.94c-3.74,0-6.99.07-9.76.2.08-.62.11-1.16.11-1.61,3.65.02,7.41.02,11.28.02l6.47-.02h3.43c-.08.61-.11,1.14-.11,1.61-1.83-.14-4.61-.2-8.35-.2h-1.32l-.91,25.01c-.01.35-.02.7-.02,1.04v3.54c-.38-.01-.72-.02-1.02-.02s-.63,0-1.02.02Z"/>
      <path class="cls-1" d="M712.93,84.31c.38.02.72.02,1.02.02.32,0,.67,0,1.05-.02l-1.05,18.61-.05,1.68v.39c0,1.82.23,3.3.7,4.46.47,1.16,1.22,2.12,2.26,2.88,1.04.76,2.17,1.29,3.41,1.59s2.58.44,4.03.44,2.73-.14,4.02-.43c.97-.21,1.86-.54,2.68-.98.65-.35,1.24-.79,1.77-1.32.53-.53.98-1.13,1.35-1.8.37-.67.64-1.38.81-2.12.3-1.45.5-3.23.59-5.33l.45-9.33c.15-3.51.23-6.42.23-8.74.39.02.73.02,1,.02s.61,0,1-.02l-.59,10.33-.39,9.11c-.12,2-.35,3.66-.68,4.97-.21.79-.52,1.54-.93,2.25-.39.65-.86,1.23-1.41,1.73-.62.58-1.37,1.08-2.25,1.52-.95.48-1.98.85-3.09,1.09-1.45.3-2.95.45-4.49.45-1.69,0-3.23-.17-4.61-.5-1.21-.29-2.32-.74-3.34-1.36-1.01-.62-1.84-1.33-2.47-2.13-.53-.65-.95-1.5-1.27-2.54-.32-1.04-.48-2.31-.48-3.79,0-1.33.04-2.9.14-4.7l.52-12.13c.04-1.41.07-2.84.07-4.29Z"/>
      <path class="cls-1" d="M753.91,115.29l.65-10.78.61-17.68c.01-.65.02-1.49.02-2.52l5.02.02,6.22-.02c2.92,0,5.26.23,7.03.68,1.76.45,3.33,1.39,4.71,2.8,1.38,1.41,2.35,3.02,2.93,4.81.58,1.79.86,3.73.86,5.8,0,2.47-.44,4.85-1.33,7.14s-2.19,4.22-3.93,5.78c-1.73,1.56-3.69,2.61-5.88,3.15s-4.57.82-7.16.82l-4.81-.02-4.95.02ZM755.85,113.86c2.68.05,4.79.07,6.33.07s3.1-.08,4.71-.23c1.61-.15,3.05-.42,4.32-.82,1.27-.39,2.52-1.11,3.73-2.16,1.22-1.04,2.22-2.21,3-3.5.78-1.29,1.36-2.71,1.74-4.28.38-1.57.57-3.15.57-4.76s-.18-3.03-.54-4.45c-.26-1.03-.65-1.99-1.18-2.88-.59-1.01-1.27-1.87-2.05-2.58-.78-.7-1.59-1.23-2.44-1.59s-1.91-.61-3.18-.76c-1.15-.15-2.5-.23-4.04-.25h-5.4l-4.38.02-1.19,28.17Z"/>
      <path class="cls-1" d="M796.75,115.29l.5-9.1.45-13.64.09-4.72c.01-1.26.02-2.43.02-3.52.39.02.73.02,1.02.02.3,0,.64,0,1.02-.02l-.42,8.22-.54,16.91-.11,5.86c-.38-.01-.72-.02-1.02-.02s-.64,0-1.02.02Z"/>
      <path class="cls-1" d="M831.19,83.84c2.16,0,4.21.33,6.14.98,1.93.65,3.61,1.71,5.05,3.18,1.44,1.47,2.46,3.15,3.08,5.05.61,1.9.92,3.92.92,6.05,0,2.35-.35,4.6-1.04,6.76-.7,2.16-1.75,3.98-3.15,5.45-1.41,1.47-3.17,2.58-5.28,3.34-2.11.76-4.32,1.13-6.64,1.13s-4.36-.35-6.4-1.06-3.75-1.74-5.13-3.11c-1.38-1.37-2.39-3.02-3.03-4.95-.64-1.93-.96-3.95-.96-6.07,0-2.38.39-4.68,1.18-6.91.79-2.23,1.93-4.08,3.42-5.55,1.49-1.47,3.27-2.55,5.34-3.25,2.07-.7,4.24-1.04,6.51-1.04ZM831.12,85.24c-2.09,0-4.06.32-5.91.96-1.85.64-3.45,1.69-4.82,3.13-1.36,1.45-2.36,3.15-3,5.11-.64,1.96-.95,4.01-.95,6.14,0,2.01.33,3.94,1,5.79.67,1.85,1.64,3.37,2.93,4.58,1.29,1.21,2.8,2.08,4.53,2.61,1.73.53,3.56.79,5.49.79,2.03,0,3.95-.3,5.76-.89,1.81-.59,3.38-1.57,4.7-2.95,1.32-1.38,2.29-3.03,2.91-4.96s.92-3.97.92-6.12-.28-3.99-.85-5.83c-.57-1.85-1.48-3.42-2.74-4.71-1.26-1.29-2.75-2.23-4.47-2.8-1.73-.57-3.56-.86-5.5-.86Z"/>
      <path class="cls-1" d="M859.51,114.36c0-.59-.05-1.27-.14-2.04,2.86,1.36,5.48,2.04,7.84,2.04,1.35,0,2.57-.22,3.66-.66,1.09-.44,1.94-1.09,2.53-1.96.6-.87.9-1.86.9-2.98,0-.56-.09-1.09-.28-1.59-.19-.5-.5-1.01-.93-1.54-.43-.53-1.05-1.21-1.86-2.03-.81-.82-2.26-2.11-4.35-3.85l-1.8-1.5c-.62-.55-1.22-1.11-1.8-1.7s-1.05-1.14-1.43-1.65c-.38-.51-.66-.96-.85-1.36-.19-.4-.34-.84-.44-1.33s-.16-.98-.16-1.5c0-1.23.33-2.37,1-3.43.67-1.06,1.66-1.9,2.97-2.52s2.99-.93,5.02-.93c1.41,0,3.2.2,5.38.61.01.58.08,1.21.2,1.91-1.39-.44-2.55-.73-3.48-.89-.93-.15-1.8-.23-2.64-.23-1.5,0-2.74.25-3.71.74-.97.49-1.72,1.15-2.25,1.98s-.8,1.69-.8,2.6c0,.48.08.96.23,1.42.15.46.4.93.74,1.41.34.48.8,1,1.38,1.57.57.57,1.25,1.22,2.04,1.94.79.73,1.83,1.66,3.14,2.79s2.23,1.94,2.76,2.42,1.05.99,1.53,1.53.88,1.09,1.18,1.62c.3.54.53,1.09.67,1.67.14.58.22,1.18.22,1.82,0,1.42-.36,2.67-1.08,3.75-.72,1.08-1.78,1.89-3.18,2.44-1.4.55-2.97.83-4.71.83-1.12,0-2.21-.09-3.27-.26-1.06-.17-2.48-.56-4.27-1.15Z"/>
    </g>
    <g>
      <path class="cls-1" d="M207.6,118.08h-8.06v-44.79h15.27c8.57,0,14.26,5.4,14.26,13.18,0,7.06-7.13,13.1-14.98,13.1h-6.48v18.51ZM207.6,91.87h5.04c4.18,0,8.21-2.38,8.21-5.4,0-3.46-2.81-5.47-7.63-5.47h-5.62v10.87Z"/>
      <path class="cls-1" d="M252.09,118.08v-31.83h19.51v6.99h-12.17v4.39h10.73v6.99h-10.73v6.55h12.96v6.91h-20.31Z"/>
      <path class="cls-1" d="M330.5,125.79c-6.26-2.09-13.03-6.48-23.98-18.79h-2.09v11.09h-7.34v-31.83h11.52c6.62,0,10.87,4.54,10.87,10.3,0,3.38-1.66,6.05-4.68,8.35,2.52,2.81,4.75,5.11,8.86,8.86,5.04,4.68,9.14,7.2,14.19,7.99,6.7,1.08,9.72-.07,12.75-.94l2.02,4.18c-5.98,2.74-13.1,3.89-22.11.79ZM307.53,93.17h-3.1v6.91h2.66c2.45,0,4.9-1.51,4.9-3.46s-1.73-3.46-4.46-3.46Z"/>
      <path class="cls-1" d="M378.74,118.08v-22.68l-7.92,2.3v20.38h-7.34v-20.38l-7.92-2.3v22.68h-7.34v-32.12l18.94,5.54,19.01-5.54v32.12h-7.42Z"/>
      <path class="cls-1" d="M417.69,82.08l-4.97-4.97,4.97-4.97,4.97,4.97-4.97,4.97ZM414.02,118.08v-31.83h7.34v31.83h-7.34Z"/>
      <path class="cls-1" d="M468.67,118.08v-24.84h-12.1v24.84h-7.34v-31.83h26.86v31.83h-7.42Z"/>
      <path class="cls-1" d="M519.35,119.16c-10.51,0-18.07-7.27-18.07-16.92s8.06-17.07,18.07-17.07,18,7.34,18,17.07-8.06,16.92-18,16.92ZM519.35,92.31c-5.69,0-10.44,4.32-10.44,9.94s4.32,9.79,10.44,9.79c5.69,0,10.37-4.25,10.37-9.79s-4.32-9.94-10.37-9.94Z"/>
      <path class="cls-1" d="M573.21,119.02h-2.81l-15.05-32.76h8.21l8.21,18.15,8.35-18.15h8.14l-15.05,32.76Z"/>
    </g>
  </g>
</svg>