<?xml version="1.0" encoding="UTF-8"?>
<svg id="Layer_2" data-name="Layer 2" xmlns="http://www.w3.org/2000/svg" viewBox="0 0 183.96 195.82">
  <defs>
    <style>
      .cls-1 {
        fill: #f0ede4;
      }
    </style>
  </defs>
  <g id="Layer_1-2" data-name="Layer 1">
    <path class="cls-1" d="M123.43,35.4v23.15c0,22.29-18.07,40.35-40.35,40.35h0v13.45c0,28.18-22.85,51.03-51.03,51.03h0v-82.78c0-24.96,20.24-45.2,45.2-45.2h46.18Z"/>
    <path class="cls-1" d="M141.82,93.36h12.46v28.29c0,24.13-19.59,43.71-43.71,43.71h-12.46v-28.29c0-24.13,19.59-43.71,43.71-43.71Z"/>
    <path class="cls-1" d="M169.96,14v114.18c0,29.58-24.07,53.65-53.65,53.65H14v-104.29c0-35.04,28.5-63.54,63.54-63.54h92.42M183.96,0h-106.42C34.72,0,0,34.72,0,77.54v118.29h116.31c37.36,0,67.65-30.29,67.65-67.65V0h0Z"/>
  </g>
</svg>