<?xml version="1.0" encoding="UTF-8"?>
<svg id="Layer_2" data-name="Layer 2" xmlns="http://www.w3.org/2000/svg" viewBox="0 0 113.93 113.93">
  <defs>
    <style>
      .cls-1 {
        fill: #f0ede4;
      }
    </style>
  </defs>
  <g id="Layer_1-2" data-name="Layer 1">
    <path class="cls-1" d="M83.47,0H30.46C13.64,0,0,13.64,0,30.46v53.01c0,16.82,13.64,30.46,30.46,30.46h53.01c16.82,0,30.46-13.64,30.46-30.46V30.46c0-16.82-13.64-30.46-30.46-30.46ZM50.91,64.15c0,16.91-13.71,30.62-30.62,30.62v-49.67c0-14.98,12.14-27.12,27.12-27.12h27.71v13.89c0,13.37-10.84,24.21-24.21,24.21v8.07ZM93.64,69.73c0,14.49-11.74,26.23-26.23,26.23h-7.48v-16.97c0-14.49,11.74-26.23,26.23-26.23h7.48v16.97Z"/>
  </g>
</svg>